<svg width="18" height="18" viewBox="0 0 18 18" fill="none" xmlns="http://www.w3.org/2000/svg">
<path d="M11.2669 2.00344L14.6898 5.42628M6.54909 8.33167H12.1407M6.54909 12.4774H12.1407M6.54909 10.4045H12.1407M4.66828 2.00344C4.48951 2.00783 4.31954 2.08195 4.19468 2.20996C4.06981 2.33797 3.99995 2.50973 4 2.68855V14.7149C3.99994 14.8936 4.06976 15.0654 4.19456 15.1934C4.31935 15.3214 4.48923 15.3955 4.66794 15.4H14.0218C14.2035 15.4 14.3778 15.3278 14.5063 15.1993C14.6348 15.0708 14.7069 14.8966 14.7069 14.7149V5.42628H11.9661C11.7873 5.42188 11.6173 5.34772 11.4924 5.21963C11.3675 5.09155 11.2977 4.9197 11.2978 4.74082V2L4.66828 2.00344Z" stroke="#808080" stroke-width="0.6" stroke-linecap="round" stroke-linejoin="round"/>
</svg>
