<svg width="18" height="18" viewBox="0 0 18 18" fill="none" xmlns="http://www.w3.org/2000/svg">
<path d="M15.2997 4H2.69998C2.51434 4 2.33629 4.0714 2.20502 4.1985C2.07375 4.32559 2 4.49797 2 4.67771V12.3223C2 12.502 2.07375 12.6744 2.20502 12.8015C2.33629 12.9286 2.51434 13 2.69998 13H15.2997C15.4853 13 15.6634 12.9286 15.7947 12.8015C15.9259 12.6744 15.9997 12.502 15.9997 12.3223V4.69804C16.0025 4.60735 15.9865 4.51703 15.9525 4.43244C15.9186 4.34786 15.8675 4.27073 15.8022 4.20563C15.737 4.14053 15.6588 4.08879 15.5725 4.05346C15.4862 4.01814 15.3934 3.99996 15.2997 4ZM15.4817 12.1325L12.4578 8.52033C12.4352 8.49408 12.4076 8.47238 12.3764 8.45646C12.3452 8.44055 12.3111 8.43074 12.276 8.42759C12.2409 8.42445 12.2055 8.42802 12.1718 8.43812C12.1382 8.44822 12.1069 8.46464 12.0798 8.48644C12.0527 8.50825 12.0302 8.53501 12.0138 8.5652C11.9974 8.59539 11.9872 8.62842 11.984 8.66241C11.9807 8.69639 11.9844 8.73066 11.9949 8.76326C12.0053 8.79586 12.0222 8.82616 12.0448 8.85241L15.0897 12.4985H2.93798L5.98991 8.85241C6.01488 8.82847 6.03471 8.79996 6.04824 8.76856C6.06177 8.73715 6.06873 8.70346 6.06873 8.66943C6.06873 8.6354 6.06177 8.60171 6.04824 8.5703C6.03471 8.53889 6.01488 8.51039 5.98991 8.48644C5.93876 8.43719 5.86954 8.40956 5.79741 8.40956C5.72527 8.40956 5.65607 8.43719 5.60491 8.48644L2.58798 12.1054V4.84714L8.31385 9.00828C8.52962 9.15345 8.78609 9.23126 9.04884 9.23126C9.31159 9.23126 9.56805 9.15345 9.78382 9.00828L15.5097 4.84714V12.1461L15.4817 12.1325ZM3.00797 4.52184H15.0337L9.43383 8.58811C9.31288 8.66989 9.16834 8.71258 9.02084 8.71009C8.87334 8.71258 8.72879 8.66989 8.60784 8.58811L3.00797 4.52184Z" fill="#808080"/>
</svg>
