<svg width="18" height="18" viewBox="0 0 18 18" fill="none" xmlns="http://www.w3.org/2000/svg">
<path d="M15.4969 11.3977L12.2063 9.98437C12.0769 9.9288 11.9357 9.90675 11.7956 9.92027C11.6554 9.93379 11.521 9.98244 11.4047 10.0617L9.63984 11.2359C9.60141 11.2634 9.55624 11.2798 9.50918 11.2835C9.46211 11.2873 9.41491 11.2781 9.37266 11.257C8.23279 10.709 7.31121 9.79236 6.75703 8.65547C6.73609 8.61195 6.72701 8.56367 6.73071 8.51552C6.73442 8.46737 6.75077 8.42105 6.77813 8.38125L7.94531 6.59531C8.02165 6.47894 8.06802 6.3455 8.08028 6.20688C8.09255 6.06825 8.07034 5.92874 8.01562 5.80078L6.60234 2.50312C6.5296 2.33557 6.40486 2.19587 6.24658 2.1047C6.0883 2.01353 5.90487 1.97572 5.72344 1.99687C4.84167 2.11122 4.03158 2.54236 3.44424 3.20991C2.8569 3.87746 2.5324 4.73585 2.53125 5.625C2.53125 11.0531 6.94688 15.4687 12.375 15.4687C13.2642 15.4676 14.1225 15.1431 14.7901 14.5558C15.4576 13.9684 15.8888 13.1583 16.0031 12.2766C16.0243 12.0951 15.9865 11.9117 15.8953 11.7534C15.8041 11.5951 15.6644 11.4704 15.4969 11.3977ZM15.4477 12.2062C15.3504 12.9525 14.985 13.638 14.4197 14.1347C13.8543 14.6315 13.1276 14.9057 12.375 14.9062C9.91403 14.9044 7.55439 13.9259 5.81422 12.1858C4.07405 10.4456 3.09561 8.08597 3.09375 5.625C3.09426 4.8724 3.36847 4.14568 3.86525 3.58033C4.36203 3.01499 5.04747 2.64961 5.79375 2.55234H5.82891C5.88385 2.55291 5.93736 2.56997 5.9825 2.60131C6.02763 2.63265 6.06231 2.67683 6.08203 2.72812L7.49531 6.01875C7.51495 6.06137 7.52333 6.10831 7.51963 6.15509C7.51594 6.20187 7.5003 6.24693 7.47422 6.28593L6.30703 8.07187C6.22744 8.1938 6.18048 8.33411 6.17063 8.47937C6.16078 8.62464 6.18838 8.77001 6.25078 8.90156C6.86321 10.1496 7.87551 11.157 9.12656 11.7633C9.25836 11.826 9.40428 11.8532 9.54983 11.8421C9.69538 11.831 9.83549 11.782 9.95625 11.7L11.7141 10.5258C11.7533 10.5003 11.7983 10.485 11.845 10.4814C11.8916 10.4777 11.9385 10.4857 11.9812 10.5047L15.2719 11.918C15.3284 11.9405 15.3761 11.9808 15.4078 12.0328C15.4395 12.0848 15.4535 12.1456 15.4477 12.2062ZM10.9758 6.80625C10.97 6.78809 10.9676 6.76902 10.9688 6.75V3.9375C10.9688 3.8629 10.9984 3.79137 11.0511 3.73862C11.1039 3.68588 11.1754 3.65625 11.25 3.65625C11.3246 3.65625 11.3961 3.68588 11.4489 3.73862C11.5016 3.79137 11.5312 3.8629 11.5312 3.9375V6.06797L14.4281 3.17812C14.4523 3.14589 14.4831 3.11922 14.5185 3.09993C14.5539 3.08065 14.593 3.06919 14.6332 3.06633C14.6734 3.06347 14.7137 3.06929 14.7515 3.08338C14.7892 3.09747 14.8235 3.11951 14.852 3.148C14.8805 3.17649 14.9025 3.21077 14.9166 3.24853C14.9307 3.28628 14.9365 3.32662 14.9337 3.36681C14.9308 3.407 14.9194 3.44611 14.9001 3.48149C14.8808 3.51687 14.8541 3.54769 14.8219 3.57187L11.932 6.46875H14.0625C14.1371 6.46875 14.2086 6.49838 14.2614 6.55112C14.3141 6.60387 14.3438 6.67541 14.3438 6.75C14.3438 6.82459 14.3141 6.89613 14.2614 6.94887C14.2086 7.00162 14.1371 7.03125 14.0625 7.03125H11.1445L11.1164 7.01718L11.0953 7.00312C11.063 6.98487 11.0362 6.95812 11.018 6.92578L11.0039 6.90468L10.9898 6.87656C10.9898 6.86953 10.9828 6.8625 10.9828 6.84843C10.9793 6.84634 10.9763 6.84351 10.9741 6.84015C10.9718 6.83679 10.9702 6.83297 10.9696 6.82896C10.9689 6.82495 10.9691 6.82084 10.9702 6.81692C10.9713 6.813 10.9732 6.80936 10.9758 6.80625Z" fill="#808080"/>
</svg>
