<svg width="18" height="18" viewBox="0 0 18 18" fill="none" xmlns="http://www.w3.org/2000/svg">
<path fill-rule="evenodd" clip-rule="evenodd" d="M8.99997 15.8915L9.54083 15.282C10.1545 14.5792 10.7065 13.9123 11.1977 13.278L11.6031 12.7432C13.296 10.4623 14.1428 8.65203 14.1428 7.31403C14.1428 4.45803 11.8405 2.14288 8.99997 2.14288C6.1594 2.14288 3.85712 4.45803 3.85712 7.31403C3.85712 8.65203 4.70397 10.4623 6.39683 12.7432L6.80226 13.278C7.50292 14.1758 8.23598 15.0478 8.99997 15.8923V15.8915Z" stroke="#808080" stroke-width="0.6" stroke-linecap="round" stroke-linejoin="round"/>
<path d="M8.99997 9.4286C10.1834 9.4286 11.1428 8.46921 11.1428 7.28574C11.1428 6.10227 10.1834 5.14288 8.99997 5.14288C7.81651 5.14288 6.85712 6.10227 6.85712 7.28574C6.85712 8.46921 7.81651 9.4286 8.99997 9.4286Z" stroke="#808080" stroke-width="0.6" stroke-linecap="round" stroke-linejoin="round"/>
</svg>
