<svg width="18" height="18" fill="none" xmlns="http://www.w3.org/2000/svg"><path d="M15.3 4H2.7a.712.712 0 00-.495.199.667.667 0 00-.205.479v7.644c0 .18.074.352.205.48.131.127.31.198.495.198h12.6a.712.712 0 00.495-.198.667.667 0 00.205-.48V4.698a.657.657 0 00-.198-.492A.7.7 0 0015.3 4zm.182 8.133L12.458 8.52a.268.268 0 00-.182-.092.277.277 0 00-.196.058.262.262 0 00-.096.176.25.25 0 00.06.19l3.046 3.646H2.938L5.99 8.852a.257.257 0 00.079-.183.25.25 0 00-.08-.183.278.278 0 00-.384 0l-3.017 3.62v-7.26l5.726 4.161a1.318 1.318 0 001.47 0l5.726-4.16v7.298l-.028-.014zM3.008 4.522h12.026l-5.6 4.066a.716.716 0 01-.413.122.716.716 0 01-.413-.122l-5.6-4.066z" fill="gray"/></svg>