<svg width="18" height="18" fill="none" xmlns="http://www.w3.org/2000/svg"><path d="M15.497 11.398l-3.29-1.414a.837.837 0 00-.802.078L9.64 11.236a.26.26 0 01-.267.021 5.618 5.618 0 01-2.616-2.602.274.274 0 01.021-.274l1.167-1.786a.844.844 0 00.07-.794L6.603 2.503a.85.85 0 00-.879-.506 3.663 3.663 0 00-3.192 3.628c0 5.428 4.416 9.844 9.844 9.844a3.663 3.663 0 003.628-3.192.85.85 0 00-.506-.88zm-.05.808a3.1 3.1 0 01-3.072 2.7 9.288 9.288 0 01-9.281-9.281 3.1 3.1 0 012.7-3.073h.035a.274.274 0 01.253.176l1.413 3.29a.274.274 0 01-.02.268L6.306 8.072a.85.85 0 00-.056.83 6.23 6.23 0 002.876 2.861.837.837 0 00.83-.063l1.757-1.174a.28.28 0 01.267-.021l3.29 1.413a.281.281 0 01.177.288zm-4.471-5.4a.153.153 0 01-.007-.056V3.937a.281.281 0 11.562 0v2.131l2.897-2.89a.281.281 0 11.394.394l-2.89 2.897h2.13a.281.281 0 010 .562h-2.917l-.029-.014-.02-.014a.204.204 0 01-.078-.077l-.014-.021-.014-.028c0-.007-.007-.014-.007-.029a.027.027 0 01-.009-.008.027.027 0 01-.004-.011v-.012a.029.029 0 01.006-.01z" fill="gray"/></svg>